<?xml version="1.0" standalone="yes"?>
<svg width="160" height="160" xmlns="http://www.w3.org/2000/svg">
	<!-- cellup.svg -->
	<polygon points="0,0 160,0 140,20 20,20 20,140 0,160" fill="#707880" />
	<polygon points="160,160 160,0 140,20 140,140 20,140 0,160" fill="#222a32" />
	<rect x="20" y="20" width="120" height="120" fill="#4c545c" />
	
	<!-- flag.svg -->
	<rect x="40" y="110" width="80" height="20" fill="#d8e0e8" />
	<rect x="60" y="100" width="40" height="10" fill="#d8e0e8" />
	<rect x="80" y="40" width="10" height="60" fill="#d8e0e8" />
	<path d="M 90 30.0 L 35 57 L 90 84.0" fill="#E50000" />
	<path d="M 80 34.5 L 35 57 L 80 79.5" fill="#FF8D00" />
	<path d="M 71 39.0 L 35 57 L 71 75.0" fill="#FFEE00" />
	<path d="M 62 43.5 L 35 57 L 62 70.5" fill="#028121" />
	<path d="M 53 48.0 L 35 57 L 53 66.0" fill="#004CFF" />
	<path d="M 44 52.5 L 35 57 L 44 61.5" fill="#770088" />

</svg>