<?xml version="1.0" standalone="yes"?>
<svg width="160" height="160" xmlns="http://www.w3.org/2000/svg">
	<!-- celldown.svg -->
	<rect x="0" y="0" width="160" height="160" fill="#1e262e" />
	<rect x="10" y="10" width="150" height="150" fill="#384048" />

    <mask id="mmask">
        <path d="M 30 60 Q 30 30, 65 30 H 95 Q 130 30, 130 60 C 130 85, 70 100, 60 110 H 130 V 130 H 30 V 115 C 30 80, 100 80, 100 60 Q 100 50, 90 50 H 70 Q 60 50, 60 60" fill="#ffffff"/>
    </mask>

    <rect x="0" y="30" width="160" height="20" mask="url(#mmask)" fill="#d62900" />
    <rect x="0" y="50" width="160" height="20" mask="url(#mmask)" fill="#ff9b55"/>
    <rect x="0" y="70" width="160" height="20" mask="url(#mmask)" fill="#ffffff"/>
    <rect x="0" y="90" width="160" height="20" mask="url(#mmask)" fill="#d462a6"/>
    <rect x="0" y="110" width="160" height="20" mask="url(#mmask)" fill="#a50062"/>
</svg>