<?xml version="1.0" standalone="yes"?>
<svg width="160" height="160" xmlns="http://www.w3.org/2000/svg">
	<!-- celldown.svg -->
	<rect x="0" y="0" width="160" height="160" fill="#1e262e" />
	<rect x="10" y="10" width="150" height="150" fill="#384048" />

    <mask id="mmask">
        <path d="M 30 30 H 95 Q 130 30, 130 60 Q 130 75, 115 80 Q 130 85, 130 100 Q 130 130, 95 130 H 30 V 110 H 90 Q 100 110, 100 100 T 90 90 H 60 V 70 H 90 Q 100 70, 100 60 T 90 50 H 30" fill="#ffffff"/>
    </mask>

    <rect x="0" y="30" width="160" height="20" mask="url(#mmask)" fill="#5acffa" />
    <rect x="0" y="50" width="160" height="20" mask="url(#mmask)" fill="#f5abb9"/>
    <rect x="0" y="70" width="160" height="20" mask="url(#mmask)" fill="#ffffff"/>
    <rect x="0" y="90" width="160" height="20" mask="url(#mmask)" fill="#f5abb9"/>
    <rect x="0" y="110" width="160" height="20" mask="url(#mmask)" fill="#5acffa"/>
</svg>